# Made in Blockbench 4.7.2
mtllib spirit_sconce.mtl

o base
v 0.8125 0.375 0.1875
v 0.1875 0.375 0.1875
v 0.1875 0.4375 0.1875
v 0.8125 0.4375 0.1875
v 0.1875 0.8125 0.125
v 0.8125 0.8125 0.125
v 0.8125 0.25 0.25
v 0.1875 0.25 0.25
v 0.24999999999999978 0.25 0.18750000000000067
v 0.24999999999999978 0.25 0.8124999999999991
v 0.1875 0.375 0.18750000000000122
v 0.1875 0.375 0.8124999999999987
v 0.1875 0.4375 0.8124999999999987
v 0.1875 0.4375 0.18750000000000122
v 0.12500000000000022 0.8125 0.8124999999999991
v 0.12500000000000022 0.8125 0.18750000000000067
v 0.18750000000000488 0.375 0.8124999999999982
v 0.8124999999999984 0.375 0.8124999999999984
v 0.8124999999999984 0.4375 0.8124999999999984
v 0.18750000000000488 0.4375 0.8124999999999982
v 0.8124999999999982 0.8125 0.8749999999999978
v 0.1875000000000051 0.8125 0.8749999999999969
v 0.18750000000000444 0.25 0.7499999999999993
v 0.8124999999999982 0.25 0.7499999999999991
v 0.749999999999999 0.25 0.8124999999999978
v 0.75 0.25 0.1875000000000051
v 0.8124999999999982 0.375 0.8124999999999973
v 0.8124999999999991 0.375 0.18750000000000666
v 0.8124999999999991 0.4375 0.18750000000000666
v 0.8124999999999982 0.4375 0.8124999999999973
v 0.8749999999999971 0.8125 0.18750000000000666
v 0.8749999999999969 0.8125 0.8124999999999973
v 0.75 0.25 0.75
v 0.75 0.25 0.25
v 0.75 0 0.75
v 0.75 0 0.25
v 0.25 0.25 0.75
v 0.25 0.25 0.25
v 0.25 0 0.75
v 0.25 0 0.25
v 0.8125 0.375 0.1875
v 0.1875 0.375 0.1875
v 0.1875 0.4375 0.1875
v 0.8125 0.4375 0.1875
v 0.1875 0.8125 0.125
v 0.8125 0.8125 0.125
v 0.8125 0.25 0.25
v 0.1875 0.25 0.25
v 0.24999999999999978 0.25 0.18750000000000067
v 0.24999999999999978 0.25 0.8124999999999991
v 0.18750000000000006 0.375 0.18750000000000122
v 0.1874999999999999 0.375 0.8124999999999987
v 0.1874999999999999 0.4375 0.8124999999999987
v 0.18750000000000006 0.4375 0.18750000000000122
v 0.12500000000000022 0.8125 0.8124999999999991
v 0.12500000000000022 0.8125 0.18750000000000067
v 0.18750000000000488 0.375 0.8124999999999982
v 0.8124999999999984 0.375 0.8124999999999984
v 0.8124999999999984 0.4375 0.8124999999999984
v 0.18750000000000488 0.4375 0.8124999999999982
v 0.8124999999999982 0.8125 0.8749999999999978
v 0.1875000000000051 0.8125 0.8749999999999969
v 0.18750000000000444 0.25 0.7499999999999993
v 0.8124999999999982 0.25 0.7499999999999991
v 0.749999999999999 0.25 0.8124999999999978
v 0.75 0.25 0.1875000000000051
v 0.8124999999999982 0.375 0.8124999999999973
v 0.8124999999999991 0.375 0.18750000000000666
v 0.8124999999999991 0.4375 0.18750000000000666
v 0.8124999999999982 0.4375 0.8124999999999973
v 0.8749999999999971 0.8125 0.18750000000000666
v 0.8749999999999969 0.8125 0.8124999999999973
vt 0.3125 1
vt 0 1
vt 0 0.8125
vt 0.3125 0.8125
vt 0.3125 0.71875
vt 0 0.71875
vt 0 0.78125
vt 0.3125 0.78125
vt 0 1
vt 0 0.8125
vt 0.3125 0.8125
vt 0.3125 1
vt 0 0.8125
vt 0 0.78125
vt 0.3125 0.78125
vt 0.3125 0.8125
vt 0.3125 0.71875
vt 0 0.71875
vt 0 0.78125
vt 0.3125 0.78125
vt 0.3125 1
vt 0.3125 0.8125
vt 0 0.8125
vt 0 1
vt 0.3125 0.78125
vt 0 0.78125
vt 0 0.8125
vt 0.3125 0.8125
vt 0.3125 0.71875
vt 0 0.71875
vt 0 0.78125
vt 0.3125 0.78125
vt 0.3125 0.71875
vt 0 0.71875
vt 0 0.78125
vt 0.3125 0.78125
vt 0.3125 0.78125
vt 0 0.78125
vt 0 0.8125
vt 0.3125 0.8125
vt 0 1
vt 0 0.8125
vt 0.3125 0.8125
vt 0.3125 1
vt 0.3125 0.8125
vt 0.3125 0.78125
vt 0 0.78125
vt 0 0.8125
vt 0.25 0.25
vt 0.25 0.375
vt 0 0.375
vt 0 0.25
vt 0.25 0.25
vt 0.25 0.375
vt 0 0.375
vt 0 0.25
vt 0.25 0.375
vt 0.25 0.625
vt 0 0.625
vt 0 0.375
vt 0.25 0
vt 0.25 0.25
vt 0 0.25
vt 0 0
vt 0.25 0.25
vt 0.25 0.375
vt 0 0.375
vt 0 0.25
vt 0.25 0.25
vt 0.25 0.375
vt 0 0.375
vt 0 0.25
vt 0 0.8125
vt 0 1
vt 0.3125 1
vt 0.3125 0.8125
vt 0 0.78125
vt 0 0.71875
vt 0.3125 0.71875
vt 0.3125 0.78125
vt 0.3125 0.8125
vt 0 0.8125
vt 0 1
vt 0.3125 1
vt 0.3125 0.78125
vt 0 0.78125
vt 0 0.8125
vt 0.3125 0.8125
vt 0 0.78125
vt 0 0.71875
vt 0.3125 0.71875
vt 0.3125 0.78125
vt 0 0.8125
vt 0.3125 0.8125
vt 0.3125 1
vt 0 1
vt 0 0.8125
vt 0 0.78125
vt 0.3125 0.78125
vt 0.3125 0.8125
vt 0 0.78125
vt 0 0.71875
vt 0.3125 0.71875
vt 0.3125 0.78125
vt 0 0.78125
vt 0 0.71875
vt 0.3125 0.71875
vt 0.3125 0.78125
vt 0 0.8125
vt 0 0.78125
vt 0.3125 0.78125
vt 0.3125 0.8125
vt 0.3125 0.8125
vt 0 0.8125
vt 0 1
vt 0.3125 1
vt 0 0.78125
vt 0.3125 0.78125
vt 0.3125 0.8125
vt 0 0.8125
vn 0 0.1643989873053573 0.9863939238321437
vn 0 0.44721359549995804 0.8944271909999161
vn 0.9863939238321439 0.1643989873053567 0
vn 1 0 0
vn 0.8944271909999166 0.44721359549995676 0
vn -0.9863939238321447 0.1643989873053522 -1.0513125557652618e-15
vn -1 3.552713678800526e-15 -1.4210854715202216e-15
vn -0.8944271909999182 0.4472135954999535 -1.4299396722704495e-15
vn -3.177643716156553e-16 0.44721359549995165 -0.8944271909999192
vn 3.5527136788005376e-16 0 -1
vn -1.4017500743536773e-15 0.16439898730535843 -0.9863939238321435
vn 0 0 1
vn 1 0 0
vn -1 0 0
vn 0 1 0
vn 0 -1 0
vn 0 0 1
vn 0 0 -1
vn 0 -0.1643989873053573 -0.9863939238321437
vn 0 -0.44721359549995804 -0.8944271909999161
vn -0.9863939238321439 -0.16439898730535643 -2.6282813894131283e-16
vn -1 0 -2.6645352591003864e-16
vn -0.8944271909999169 -0.44721359549995643 0
vn 0.9863939238321447 -0.1643989873053522 1.0513125557652618e-15
vn 1 -3.552713678800526e-15 1.4210854715202216e-15
vn 0.8944271909999182 -0.4472135954999535 1.4299396722704495e-15
vn 3.177643716156553e-16 -0.44721359549995165 0.8944271909999192
vn -3.5527136788005376e-16 0 1
vn 1.4017500743536773e-15 -0.16439898730535843 0.9863939238321435
vn 0 0 -1
usemtl m_0
f 6/1/1 5/2/1 3/3/1 4/4/1
f 8/5/2 7/6/2 1/7/2 2/8/2
f 15/9/3 13/10/3 14/11/3 16/12/3
f 13/13/4 12/14/4 11/15/4 14/16/4
f 10/17/5 9/18/5 11/19/5 12/20/5
f 31/21/6 29/22/6 19/23/6 32/24/6
f 28/25/7 27/26/7 19/27/7 29/28/7
f 26/29/8 25/30/8 27/31/8 28/32/8
f 24/33/9 23/34/9 17/35/9 18/36/9
f 18/37/10 17/38/10 20/39/10 30/40/10
f 21/41/11 30/42/11 20/43/11 22/44/11
f 3/45/12 2/46/12 1/47/12 4/48/12
f 36/49/13 34/50/13 33/51/13 35/52/13
f 39/53/14 37/54/14 38/55/14 40/56/14
f 33/57/15 34/58/15 38/59/15 37/60/15
f 36/61/16 35/62/16 39/63/16 40/64/16
f 35/65/17 33/66/17 37/67/17 39/68/17
f 40/69/18 38/70/18 34/71/18 36/72/18
f 43/73/19 45/74/19 46/75/19 44/76/19
f 41/77/20 47/78/20 48/79/20 42/80/20
f 54/81/21 53/82/21 55/83/21 56/84/21
f 51/85/22 52/86/22 53/87/22 54/88/22
f 51/89/23 49/90/23 50/91/23 52/92/23
f 59/93/24 69/94/24 71/95/24 72/96/24
f 59/97/25 67/98/25 68/99/25 69/100/25
f 67/101/26 65/102/26 66/103/26 68/104/26
f 57/105/27 63/106/27 64/107/27 58/108/27
f 60/109/28 57/110/28 58/111/28 70/112/28
f 60/113/29 70/114/29 61/115/29 62/116/29
f 41/117/30 42/118/30 43/119/30 44/120/30